<svg xmlns="http://www.w3.org/2000/svg" version="1.1" xmlns:xlink="http://www.w3.org/1999/xlink" xmlns:svgjs="http://svgjs.dev/svgjs" width="128" height="128" viewBox="0 0 128 128"><g transform="matrix(0.44782608695652176,0,0,0.44782608695652176,35.33913043478261,12.5)"><svg viewBox="0 0 125 225" data-background-color="#ff5858" preserveAspectRatio="xMidYMid meet" height="230" width="128" xmlns="http://www.w3.org/2000/svg" xmlns:xlink="http://www.w3.org/1999/xlink"><g id="tight-bounds" transform="matrix(1,0,0,1,0,0)"><svg viewBox="0 0 125 225" height="225" width="125"><g><svg></svg></g><g><svg viewBox="0 0 125 225" height="225" width="125"><g><path d="M8.188 130.945l1.455 1.82-0.727-2.366c-0.182-1.092-1.456 0.182-0.728 0.546M9.825 129.854c0.546 0.91 1.092 1.82 1.092 2.729 0 1.274 1.092 1.82 2.001 2.183-1.274-1.456-2.001-5.459-3.093-4.912M79.694 52.707c3.093 0 6.004-0.364 9.28 0.363 8.006 2.001 14.738 6.004 19.287 11.645l12.736 20.379c0.546 5.095 1.638 10.735 1.456 16.921 1.274 0 1.092-1.82 2.547-2.183-1.456 3.639-2.183 8.188-2.547 13.464-0.91-2.911 0-7.278 0.182-9.643-1.274 2.001-2.001 0.546-2.002-0.364 0.182-1.456-0.546-1.274-1.092-1.82-2.001-1.82-3.275-3.821-4.73-6.914 0.91-2.365 1.092-5.822-1.82-7.642-0.91-0.546-2.001-1.456-2.547-2.911-0.728-2.001-2.001-4.367-1.638-7.46 0.182-0.91-2.729 2.001-4.366 0.728-7.096-4.913-14.192-10.553-22.744-15.284-4.549 0-7.824-1.638-9.462-3.639-1.456-1.82-0.364-4.185 1.82-4.367 1.274 0 2.729-0.364 3.821 0.364 0.182-0.728 0.91-1.638 1.819-1.637M61.681 48.522l0.364 0.182c1.82 0.364 2.729 2.911 4.731 2.001 0 1.274 0.182 2.547-0.182 3.457-0.546 1.456-2.183 1.456-3.457 1.456-12.191-0.728-19.287 4.367-26.747 8.733-2.001 1.274-4.185 2.183-5.822 3.821-7.824 7.278-16.376 14.01-18.377 27.475l-1.638 14.92c-0.182 1.638-2.001 3.275-1.637 5.276l1.273 8.916c-1.274-1.274-2.001 0.364-1.637 1.092 0.182 0.546 0.91 2.365 2.001 0.727 1.456 2.729 2.911 8.006 4.913 10.372 6.186 7.278 14.192 13.828 20.742 20.378 1.638-0.364 2.911-0.364 3.275-1.456 0.546 1.092-0.546 2.183-1.455 2.366 2.911 1.82 6.186 3.457 10.553 3.821 5.64 0.364 10.917 1.274 15.829 2.547 2.547-0.728 5.095-1.092 7.824-1.274 0.91 0 1.456-1.456 2.548-1.819l0.182-1.82c1.092 1.638 0.91-0.546 0.182-1.637 1.274 1.092 1.638 2.001 2.183 2.729 0-0.546 1.456-2.547 1.456-0.182l0.363-2.365c0.546-0.364 0.728 2.001 1.274 0.364 0.546-1.638 1.638-0.364 2.729-0.91-0.364 0.728-0.182 2.183 1.092 1.274l1.456-1.274c0.91 2.183 2.365 1.274 3.093 0.91 8.006-5.095 16.012-11.099 23.653-17.104l-0.182 2.366 0.91-2.911c0.91 0.91 1.638 0.182 2.002-0.364 1.092-1.82 2.547-3.639 4.912-5.277-2.911 7.824-6.368 14.01-10.735 19.105l-1.819 2.183c0 1.274-0.364 2.911-1.82 3.093-0.728 0.182-2.183-0.364-3.275 0.728-0.546 0.728 1.274 2.183-0.182 1.092-1.274-0.91-2.547 0-4.003 0.364-1.092 0.364 0.728 1.456 1.092 2.183 0.364 0.728 0.728 1.456 0.546 2.366l-2.002-2.184c-2.365 1.274-3.821 3.639-5.822 5.459-0.91 0.728-0.546 2.001-0.546 3.093-1.274 0-2.729-0.364-3.457 0.364-0.546 0.728-0.364 1.82-0.364 2.911-1.82-0.182-2.001-2.911-3.639-2.365-1.638 0.364-3.457 0.546-4.913 1.455 1.092 2.183-1.82 0.91-1.455 1.274-2.729-1.638-5.095-2.911-8.006-1.82-6.186-2.001-13.828-1.092-19.469-0.364 0-0.91 0.182-1.82-0.182-2.001-0.364 0.91-1.456 0.546-1.273 0.546-3.457-2.365-6.914-3.821-10.553-5.823-3.275 0.364-6.368-1.274-7.278-2.183-2.547-2.365-5.459-1.092-7.824-1.638-5.095-1.274-6.914-6.55-7.46-10.189-0.364-1.82-1.82-2.547-2.366-2.365-2.365-7.642-6.004-14.556-8.915-21.652-0.728-1.82-0.546-3.639-0.546-5.641 0.91 0.364 1.82 0.182 1.638-1.091-0.91-6.004-3.093-10.553-5.459-14.92 1.274-6.186 1.456-13.464 4.367-18.923 2.547-4.913 7.278-7.46 10.553-11.645 1.092-1.456 1.092-3.457 2.183-4.731 3.639-3.639 7.278-7.46 11.281-10.735 1.82-1.456 4.003 0 6.732-0.546 0.91-3.275 4.549-6.186 8.006-5.276 1.456 0.364 4.367-3.457 5.277-3.821 1.456-0.546 0.728 1.456 0.728 2.729 3.457-2.729 8.188-4.185 12.554-5.822" fill="#000000" fill-rule="nonzero" stroke="none" stroke-width="1" stroke-linecap="butt" stroke-linejoin="miter" stroke-miterlimit="10" stroke-dasharray="" stroke-dashoffset="0" font-family="none" font-weight="none" font-size="none" text-anchor="none" style="mix-blend-mode: normal" data-fill-palette-color="tertiary"></path></g><g transform="matrix(1,0,0,1,39.325,87.82101769911505)"><svg viewBox="0 0 46.35 49.357964601769915" height="49.357964601769915" width="46.35"><g><svg viewBox="0 0 46.35 49.357964601769915" height="49.357964601769915" width="46.35"><g><svg viewBox="0 0 46.35 49.357964601769915" height="49.357964601769915" width="46.35"><g id="textblocktransform"><svg viewBox="0 0 46.35 49.357964601769915" height="49.357964601769915" width="46.35" id="textblock"><g><svg viewBox="0 0 46.35 49.357964601769915" height="49.357964601769915" width="46.35"><g transform="matrix(1,0,0,1,0,0)"><svg width="46.35" viewBox="1.7 -35.4 33.9 36.1" height="49.357964601769915" data-palette-color="#ffffff"><path d="M1.7-34.4L1.7-35.4Q2.95-35.35 5.08-35.3 7.2-35.25 9.3-35.25L9.3-35.25Q11.7-35.25 13.95-35.3 16.2-35.35 17.15-35.35L17.15-35.35Q24.1-35.35 27.55-33.08 31-30.8 31-26.65L31-26.65Q31-24.95 30.3-23.23 29.6-21.5 27.93-20.03 26.25-18.55 23.35-17.68 20.45-16.8 16.05-16.8L16.05-16.8 11.25-16.8 11.25-17.8 15.55-17.8Q18.5-17.8 20.03-18.93 21.55-20.05 22.13-21.93 22.7-23.8 22.7-26.1L22.7-26.1Q22.7-30.05 21.3-32.23 19.9-34.4 16.5-34.4L16.5-34.4Q14.55-34.4 13.98-33.55 13.4-32.7 13.4-30.1L13.4-30.1 13.4-5.3Q13.4-3.5 13.68-2.6 13.95-1.7 14.75-1.4 15.55-1.1 17.15-1L17.15-1 17.15 0Q15.8-0.1 13.75-0.13 11.7-0.15 9.6-0.15L9.6-0.15Q7.2-0.15 5.08-0.13 2.95-0.1 1.7 0L1.7 0 1.7-1Q3.3-1.1 4.1-1.4 4.9-1.7 5.18-2.6 5.45-3.5 5.45-5.3L5.45-5.3 5.45-30.1Q5.45-31.95 5.18-32.83 4.9-33.7 4.08-34.02 3.25-34.35 1.7-34.4L1.7-34.4ZM11.25-16.8L11.15-17.65Q13.3-17.6 14.88-17.45 16.45-17.3 17.65-17.18 18.85-17.05 19.8-17L19.8-17Q24.35-16.6 26.53-15.05 28.7-13.5 29.35-10.4L29.35-10.4 30.5-5.25Q30.95-3.25 31.45-2.45 31.95-1.65 32.9-1.65L32.9-1.65Q33.55-1.7 33.98-1.98 34.4-2.25 34.9-2.8L34.9-2.8 35.6-2.2Q34.25-0.65 32.7 0.03 31.15 0.7 28.95 0.7L28.95 0.7Q26.25 0.7 24.5-0.45 22.75-1.6 22.2-4.7L22.2-4.7 21.3-9.7Q20.95-11.8 20.45-13.38 19.95-14.95 19.07-15.88 18.2-16.8 16.65-16.8L16.65-16.8 11.25-16.8Z" opacity="1" transform="matrix(1,0,0,1,0,0)" fill="#000000" class="wordmark-text-0" data-fill-palette-color="primary" id="text-0"></path></svg></g></svg></g></svg></g></svg></g><g></g></svg></g></svg></g></svg></g><defs></defs></svg><rect width="125" height="225" fill="none" stroke="none" visibility="hidden"></rect></g></svg></g></svg>